<?xml version="1.0" encoding="UTF-8"?><svg id="Layer_2" xmlns="http://www.w3.org/2000/svg" viewBox="0 0 310.43 263.65"><defs><style>.cls-1{fill:#000;stroke-width:0px;}</style></defs><g id="Layer_1-2"><path class="cls-1" d="M11.86,263.62h67.05c3.29,0,6.43-1.37,8.67-3.78l58.96-63.5c4.68-5.04,12.66-5.04,17.34,0l58.99,63.53c2.24,2.41,5.38,3.78,8.67,3.78h67.04c10.28,0,15.67-12.21,8.74-19.8l-95.35-104.61c-4.12-4.52-4.12-11.43,0-15.94l94.4-103.49c6.93-7.6,1.54-19.81-8.74-19.81h-67.04c-3.29,0-6.43,1.37-8.66,3.77l-58.06,62.43c-4.68,5.03-12.65,5.03-17.33,0L88.54,3.84c-2.24-2.41-5.38-3.77-8.66-3.77H12.84C2.56.06-2.83,12.27,4.1,19.87l94.33,103.42c4.12,4.52,4.12,11.43,0,15.94L3.11,243.82c-6.92,7.6-1.53,19.8,8.74,19.8Z"/></g></svg>