<?xml version="1.0" encoding="utf-8"?>
<!-- Generator: Adobe Illustrator 28.3.0, SVG Export Plug-In . SVG Version: 6.00 Build 0)  -->
<svg version="1.1" id="Layer_1" xmlns="http://www.w3.org/2000/svg" xmlns:xlink="http://www.w3.org/1999/xlink" x="0px" y="0px"
	 viewBox="0 0 120 24" style="enable-background:new 0 0 120 24;" xml:space="preserve">
<style type="text/css">
	.st0{fill:#FFFFFF;}
</style>
<g>
	<path class="st0" d="M0,5.9C0.3,7,1.2,8.1,2.5,8.3h3.8l0.2,0.1v9.7h2.4V8.4l0.2-0.1H13C14.3,8,15.2,7,15.4,5.9v0L0,5.9L0,5.9z"/>
	<path class="st0" d="M83.9,5.9l-2.4,0v12.2h10.9c1.2-0.5,1.8-1.4,2.1-2.4H83.8L83.9,5.9z"/>
	<path class="st0" d="M65.5,8.3c1.3-0.4,2.3-1.3,2.6-2.4l-13.4,0v7.2h11v2.5l-8.6,0c-1.3,0.4-2.5,1.3-3.1,2.5l0.7,0H68v-7.4H57V8.3
		H65.5z"/>
	<polygon class="st0" points="106.3,18.1 108.7,18.1 108.7,13.2 117.3,13.2 117.3,18.1 119.7,18.1 119.7,10.7 106.3,10.7 	"/>
	<path class="st0" d="M30,8.3h9.1c1.3-0.3,2.2-1.4,2.5-2.5H27.5C27.8,6.9,28.7,8.1,30,8.3"/>
	<path class="st0" d="M30,13.2h9.1c1.3-0.3,2.2-1.4,2.5-2.5H27.5C27.8,11.8,28.7,12.9,30,13.2"/>
	<path class="st0" d="M30,18.1h9.1c1.3-0.3,2.2-1.4,2.5-2.5H27.5C27.8,16.8,28.7,17.9,30,18.1"/>
	<path class="st0" d="M108.4,8.3h9.1c1.3-0.3,2.2-1.4,2.5-2.5h-14.1C106.2,7,107.1,8.1,108.4,8.3"/>
</g>
</svg>
